<?xml version="1.0" standalone="no"?>
<!DOCTYPE svg PUBLIC "-//W3C//DTD SVG 20010904//EN"
 "http://www.w3.org/TR/2001/REC-SVG-20010904/DTD/svg10.dtd">
<svg version="1.0" xmlns="http://www.w3.org/2000/svg"
 width="700.000000pt" height="700.000000pt" viewBox="0 0 700.000000 700.000000"
 preserveAspectRatio="xMidYMid meet">
<metadata>
Created by potrace 1.14, written by Peter Selinger 2001-2017
</metadata>
<g transform="translate(0.000000,700.000000) scale(0.100000,-0.100000)"
fill="#000000" stroke="none">
<path d="M609 6996 c-2 -2 -23 -7 -47 -11 -85 -12 -221 -74 -296 -135 -125
-101 -226 -268 -255 -420 -7 -37 -9 -983 -8 -2960 l2 -2905 23 -68 c78 -229
237 -388 472 -469 l65 -23 2915 -2 c2816 -2 2917 -1 2984 17 270 73 460 269
521 540 13 57 14 440 12 2970 l-2 2905 -21 61 c-40 116 -101 219 -170 288 -52
52 -119 106 -132 106 -6 0 -12 4 -14 8 -6 14 -117 62 -191 82 -71 19 -124 19
-2963 20 -1590 0 -2893 -2 -2895 -4z m3498 -1678 c76 -42 79 -48 173 -308 53
-147 237 -652 267 -730 13 -36 30 -83 37 -105 15 -43 82 -231 93 -255 3 -8 7
-19 8 -25 3 -9 134 -368 220 -600 19 -50 54 -149 80 -220 25 -72 53 -148 62
-170 17 -46 276 -755 335 -920 22 -60 46 -127 54 -149 18 -49 18 -80 0 -114
-29 -56 -36 -57 -441 -57 l-372 0 -37 28 c-44 34 -51 49 -165 347 -49 129 -92
243 -96 253 -7 16 -47 17 -708 15 l-700 -3 -104 -275 c-58 -151 -107 -282
-109 -290 -6 -20 -62 -58 -100 -69 -16 -4 -189 -8 -384 -7 -384 1 -381 1 -414
57 -9 15 -16 41 -16 57 0 32 7 51 185 537 65 176 126 345 137 375 10 30 23 64
27 75 14 33 72 189 76 205 2 8 16 47 30 85 15 39 44 117 65 175 58 163 260
713 269 735 5 11 57 153 116 315 58 162 110 304 114 315 9 21 26 68 116 315
127 348 137 370 194 400 49 25 82 27 516 26 399 -1 443 -3 472 -18z"/>
<path d="M3616 4432 c-4 -7 -22 -56 -40 -110 -41 -120 -171 -489 -196 -557
-10 -27 -34 -95 -54 -150 -129 -370 -169 -484 -181 -512 -8 -18 -11 -34 -7
-34 24 -4 955 -3 961 1 4 3 -21 86 -57 185 -35 99 -79 225 -99 280 -19 55 -45
129 -58 165 -21 57 -218 618 -250 709 -7 22 -14 30 -19 23z"/>
</g>
</svg>
